# xmcd
#
# Track frame offsets:
#	150
#	13952
#	35986
#	55607
#	69392
#	96432
#	114671
#	137386
#	155256
#	172835
#
# Disc length: 2675 seconds
#
# Revision: 1
# Processed by: cddbd v1.5.2PL0 Copyright (c) Steve Scherf et al.
# Submitted via: audiograbber 1.83.01
#
DISCID=800a710a
DTITLE=The Soul Prophets - From The Old School
DYEAR=1993
DGENRE=Blues
TTITLE0=Doing My Time
TTITLE1=Nothing Left To Burn
TTITLE2=Part Time Love
TTITLE3=My Heart Told A Lie
TTITLE4=I've Never Found A Girl
TTITLE5=San-Ho-Zay
TTITLE6=Heaven Help The Lonely
TTITLE7=From The Old School
TTITLE8=Put Those Blues Away
TTITLE9=I'd Rather Go Blind
EXTD=Have Mercy Records, Sacramento, CA\nHMCD-05
EXTT0=Time 3.02
EXTT1=Time 4:49
EXTT2=
EXTT3=
EXTT4=
EXTT5=
EXTT6=
EXTT7=
EXTT8=
EXTT9=
PLAYORDER=
